<?xml version="1.0" encoding="UTF-8"?>
<svg version="1.1" xmlns="http://www.w3.org/2000/svg" width="56" height="56">
<path d="M0 0 C0.70253906 0.0103125 1.40507812 0.020625 2.12890625 0.03125 C4.1953125 0.1328125 4.1953125 0.1328125 7.875 0.875 C9.25321293 2.50474989 10.58693831 4.17310323 11.875 5.875 C13.5765625 6.29845703 13.5765625 6.29845703 15.3125 6.73046875 C20.21466879 8.30539798 21.46037764 10.83537137 23.875 15.1875 C24.28105469 15.85201172 24.68710937 16.51652344 25.10546875 17.20117188 C26.76680681 20.06740529 27.88504551 22.0600577 27.84375 25.41015625 C22.15020725 39.8965493 22.15020725 39.8965493 16.37890625 43.3828125 C13.9375 44.125 13.9375 44.125 11.66015625 44.515625 C11.07105469 44.63421875 10.48195312 44.7528125 9.875 44.875 C9.38 45.865 9.38 45.865 8.875 46.875 C7.885 46.875 6.895 46.875 5.875 46.875 C5.875 47.535 5.875 48.195 5.875 48.875 C-10.95481074 50.55458797 -10.95481074 50.55458797 -16.0625 46.6015625 C-18.06820093 43.76775021 -19.63689453 41.00763111 -21.125 37.875 C-21.68960937 37.03066406 -22.25421875 36.18632813 -22.8359375 35.31640625 C-24.35319293 32.44281643 -24.28514949 31.16041115 -23.75 28 C-23.25657436 24.57654168 -23.18348302 22.55068507 -23.8125 19.0625 C-24.125 15.875 -24.125 15.875 -22.5625 13.5625 C-21.758125 12.675625 -20.95375 11.78875 -20.125 10.875 C-18.66716778 8.26560284 -17.25710712 5.63872689 -15.8828125 2.984375 C-14.125 0.875 -14.125 0.875 -11.4375 0.0703125 C-7.60506408 -0.1556566 -3.83102147 -0.18479881 0 0 Z M-7.125 11.875 C-8.548125 14.535625 -8.548125 14.535625 -10 17.25 C-12.875 22.625 -12.875 22.625 -15.125 24.875 C-14.5475 25.555625 -13.97 26.23625 -13.375 26.9375 C-11.125 29.875 -11.125 29.875 -9.8125 33.625 C-8.95648288 35.54464523 -8.95648288 35.54464523 -7.125 36.875 C-2.10578963 37.80893359 2.77999884 37.91935946 7.875 37.875 C8.9411252 36.01379837 9.97707965 34.13529266 11 32.25 C11.58007812 31.20585938 12.16015625 30.16171875 12.7578125 29.0859375 C14.39736986 24.37364328 12.79093971 21.87402169 10.8046875 17.5390625 C10.45664062 16.86617187 10.10859375 16.19328125 9.75 15.5 C9.13125 14.30375 8.5125 13.1075 7.875 11.875 C2.925 11.875 -2.025 11.875 -7.125 11.875 Z M2.875 41.875 C3.535 42.535 4.195 43.195 4.875 43.875 C4.875 43.215 4.875 42.555 4.875 41.875 C4.215 41.875 3.555 41.875 2.875 41.875 Z " fill="#9B9B9B" transform="translate(26.125,4.125)"/>
<path d="M0 0 C0.70253906 0.0103125 1.40507812 0.020625 2.12890625 0.03125 C5.98076862 0.22056649 7.54374318 0.52228302 10.2265625 3.37890625 C10.77054688 4.20261719 11.31453125 5.02632812 11.875 5.875 C14.00446603 6.74465506 14.00446603 6.74465506 15.875 6.875 C15.215 8.525 14.555 10.175 13.875 11.875 C10.60463272 12.02010162 7.33508993 12.10899373 4.0625 12.1875 C2.6693457 12.2503418 2.6693457 12.2503418 1.24804688 12.31445312 C-1.30329532 12.36050623 -3.61922103 12.36389015 -6.125 11.875 C-8.13671875 9.35546875 -8.13671875 9.35546875 -9.125 6.875 C-9.785 6.875 -10.445 6.875 -11.125 6.875 C-13.105 10.505 -15.085 14.135 -17.125 17.875 C-19.105 17.875 -21.085 17.875 -23.125 17.875 C-22.0024654 15.60291794 -20.87708479 13.33232355 -19.75 11.0625 C-19.43289062 10.41990234 -19.11578125 9.77730469 -18.7890625 9.11523438 C-17.36041389 6.24305539 -15.90714527 3.5482179 -14.125 0.875 C-9.45395537 -0.3659641 -4.79150353 -0.23113004 0 0 Z " fill="#191919" transform="translate(26.125,4.125)"/>
<path d="M0 0 C1.65 0 3.3 0 5 0 C4.835 0.78375 4.67 1.5675 4.5 2.375 C3.47104978 7.77698866 5.57330529 10.99046028 8.4453125 15.5546875 C12.64767376 19.57713115 17.46052435 19.26814778 22.96484375 19.16796875 C24.46724609 19.08482422 24.46724609 19.08482422 26 19 C26.66 17.35 27.32 15.7 28 14 C29.5625 15.1875 29.5625 15.1875 31 17 C30.6875 19.6875 30.6875 19.6875 30 22 C29.01 22 28.02 22 27 22 C27 22.66 27 23.32 27 24 C10.17018926 25.67958797 10.17018926 25.67958797 5.0625 21.7265625 C3.05679907 18.89275021 1.48810547 16.13263111 0 13 C-0.56332031 12.1234375 -1.12664063 11.246875 -1.70703125 10.34375 C-3.42947482 7.2214958 -2.86303714 5.37369063 -2 2 C-1.34 2 -0.68 2 0 2 C0 1.34 0 0.68 0 0 Z " fill="#252525" transform="translate(5,29)"/>
<path d="M0 0 C0.99 0 1.98 0 3 0 C4.37257477 2.21954651 5.72259151 4.44835409 7.0625 6.6875 C7.45244141 7.31333984 7.84238281 7.93917969 8.24414062 8.58398438 C9.840755 11.28268655 11.0019924 13.35446126 10.9921875 16.53125 C9.66553364 19.83221551 7.95221039 22.81237571 6.0625 25.8125 C5.70220703 26.40998047 5.34191406 27.00746094 4.97070312 27.62304688 C4.04093616 29.12129015 3.02648071 30.56628564 2 32 C1.34 32 0.68 32 0 32 C-1.04805253 28.8558424 -1.39086472 26.80430647 0.08203125 23.7734375 C1.01075722 22.24347021 1.97228924 20.73283441 2.96875 19.24609375 C4.29647731 16.35426343 3.9670618 14.99214667 3 12 C2.02831881 10.15440786 2.02831881 10.15440786 0.875 8.5 C-1 5 -1 5 -0.75 2.0625 C-0.5025 1.381875 -0.255 0.70125 0 0 Z " fill="#212121" transform="translate(43,13)"/>
<path d="M0 0 C1.3606152 0.03962957 2.72061697 0.11085657 4.078125 0.2109375 C4.77550781 0.23800781 5.47289063 0.26507813 6.19140625 0.29296875 C7.90498205 0.36338967 9.61695802 0.47100837 11.328125 0.5859375 C11.328125 0.9159375 11.328125 1.2459375 11.328125 1.5859375 C5.388125 2.0809375 5.388125 2.0809375 -0.671875 2.5859375 C-0.011875 3.9059375 0.648125 5.2259375 1.328125 6.5859375 C0.2109375 9.3828125 0.2109375 9.3828125 -1.546875 12.3359375 C-2.12179688 13.32078125 -2.69671875 14.305625 -3.2890625 15.3203125 C-3.74539063 16.06796875 -4.20171875 16.815625 -4.671875 17.5859375 C-5.991875 17.5859375 -7.311875 17.5859375 -8.671875 17.5859375 C-9.001875 16.5959375 -9.331875 15.6059375 -9.671875 14.5859375 C-11.981875 14.9159375 -14.291875 15.2459375 -16.671875 15.5859375 C-16.859375 13.2109375 -16.859375 13.2109375 -16.671875 10.5859375 C-15.681875 9.9259375 -14.691875 9.2659375 -13.671875 8.5859375 C-14.001875 9.5759375 -14.331875 10.5659375 -14.671875 11.5859375 C-13.021875 11.9159375 -11.371875 12.2459375 -9.671875 12.5859375 C-9.424375 11.7196875 -9.176875 10.8534375 -8.921875 9.9609375 C-5.56132224 0.88744504 -5.56132224 0.88744504 0 0 Z " fill="#B5B5B5" transform="translate(18.671875,9.4140625)"/>
<path d="M0 0 C3 1 3 1 4.4375 3 C6.22804402 5.29189635 7.18127263 5.61121002 10 6 C9.34 7.65 8.68 9.3 8 11 C4.72963272 11.14510162 1.46008993 11.23399373 -1.8125 11.3125 C-3.2056543 11.3753418 -3.2056543 11.3753418 -4.62695312 11.43945312 C-5.51962891 11.45556641 -6.41230469 11.47167969 -7.33203125 11.48828125 C-8.15421143 11.51446533 -8.9763916 11.54064941 -9.82348633 11.56762695 C-12 11 -12 11 -15 6 C-10.71 6 -6.42 6 -2 6 C-1.67 4.35 -1.34 2.7 -1 1 C-0.67 0.67 -0.34 0.34 0 0 Z " fill="#A3A3A3" transform="translate(32,5)"/>
<path d="M0 0 C0.99 0.33 1.98 0.66 3 1 C2.34 1.66 1.68 2.32 1 3 C1.17711278 6.80792475 2.13370063 9.39578086 4.125 12.5625 C6 16 6 16 5.875 18.875 C5 21 5 21 3 22 C3.33 20.68 3.66 19.36 4 18 C2.02 18.33 0.04 18.66 -2 19 C-4.31 14.38 -6.62 9.76 -9 5 C-6.53721199 3.768606 -4.7204945 3.92840804 -2 4 C-1.34 2.68 -0.68 1.36 0 0 Z " fill="#B4B4B4" transform="translate(42,11)"/>
<path d="M0 0 C0.27186697 3.17178131 0.19555229 4.68222753 -1.5 7.4375 C-3.2982968 10.50959036 -3.24421598 12.49957098 -3 16 C-2.34 16.33 -1.68 16.66 -1 17 C-3.70879335 18.35439668 -6.00933268 18.06501451 -9 18 C-9.66 16.35 -10.32 14.7 -11 13 C-9.02 13 -7.04 13 -5 13 C-5 12.34 -5 11.68 -5 11 C-6.98 11 -8.96 11 -11 11 C-10.43518386 7.04628701 -9.28003407 4.28324906 -7 1 C-4.53721199 -0.231394 -2.7204945 -0.07159196 0 0 Z " fill="#303030" transform="translate(46,29)"/>
<path d="M0 0 C0.66 0 1.32 0 2 0 C3.07511878 4.39006837 3.3257941 7.04622243 1.0625 10.9375 C0.381875 11.948125 -0.29875 12.95875 -1 14 C-1.99 13.67 -2.98 13.34 -4 13 C-4.8125 11 -4.8125 11 -5 8 C-3.65982736 5.09986641 -2.05850604 2.44713255 0 0 Z " fill="#2D2D2D" transform="translate(15,13)"/>
<path d="M0 0 C4.29 0 8.58 0 13 0 C13.66 1.65 14.32 3.3 15 5 C13.06440687 5.13504138 11.126128 5.23201129 9.1875 5.3125 C7.56908203 5.39951172 7.56908203 5.39951172 5.91796875 5.48828125 C4.95503906 5.32714844 3.99210937 5.16601562 3 5 C2.01 3.35 1.02 1.7 0 0 Z " fill="#121212" transform="translate(17,11)"/>
<path d="M0 0 C3.65316671 1.24976756 4.78065836 1.67098753 7 5 C7.125 8.1875 7.125 8.1875 7 11 C5.68 11 4.36 11 3 11 C-1.06153846 4.6 -1.06153846 4.6 -0.75 1.5625 C-0.5025 1.046875 -0.255 0.53125 0 0 Z " fill="#202020" transform="translate(11,32)"/>
<path d="M0 0 C2.29296875 -0.30859375 2.29296875 -0.30859375 5 0 C6.80078125 2.15234375 6.80078125 2.15234375 8.3125 4.9375 C8.82425781 5.85402344 9.33601563 6.77054688 9.86328125 7.71484375 C11 10 11 10 11 11 C8.70703125 11.30859375 8.70703125 11.30859375 6 11 C4.19921875 8.84765625 4.19921875 8.84765625 2.6875 6.0625 C1.91986328 4.68771484 1.91986328 4.68771484 1.13671875 3.28515625 C0 1 0 1 0 0 Z " fill="#0C0C0C" transform="translate(35,17)"/>
<path d="M0 0 C2.64453125 0.3125 2.64453125 0.3125 4.4453125 2.0625 C4.94417969 2.805 5.44304688 3.5475 5.95703125 4.3125 C6.46878906 5.055 6.98054687 5.7975 7.5078125 6.5625 C7.88292969 7.14 8.25804687 7.7175 8.64453125 8.3125 C8.31453125 8.9725 7.98453125 9.6325 7.64453125 10.3125 C6.65453125 9.9825 5.66453125 9.6525 4.64453125 9.3125 C4.31453125 9.9725 3.98453125 10.6325 3.64453125 11.3125 C1.99453125 11.3125 0.34453125 11.3125 -1.35546875 11.3125 C-0.03546875 10.9825 1.28453125 10.6525 2.64453125 10.3125 C2.97453125 8.6625 3.30453125 7.0125 3.64453125 5.3125 C1.99453125 5.3125 0.34453125 5.3125 -1.35546875 5.3125 C-1.68546875 5.9725 -2.01546875 6.6325 -2.35546875 7.3125 C-2.73680174 5.3210944 -3.06872457 3.31970923 -3.35546875 1.3125 C-2.35546875 0.3125 -2.35546875 0.3125 0 0 Z " fill="#B0B0B0" transform="translate(6.35546875,23.6875)"/>
<path d="M0 0 C4.29 0 8.58 0 13 0 C12.34 1.32 11.68 2.64 11 4 C7.04 4 3.08 4 -1 4 C-0.67 2.68 -0.34 1.36 0 0 Z " fill="#050505" transform="translate(19,42)"/>
<path d="M0 0 C0.66 0.66 1.32 1.32 2 2 C1.505 2.70125 1.01 3.4025 0.5 4.125 C-1.1936681 7.37119719 -1.25162315 9.39340156 -1 13 C-0.34 13.33 0.32 13.66 1 14 C-1.70879335 15.35439668 -4.00933268 15.06501451 -7 15 C-7.66 13.35 -8.32 11.7 -9 10 C-7.02 10 -5.04 10 -3 10 C-2.814375 8.63875 -2.814375 8.63875 -2.625 7.25 C-2.07890323 4.41029677 -1.42736197 2.47409409 0 0 Z " fill="#949494" transform="translate(44,32)"/>
<path d="M0 0 C1.5625 1.1875 1.5625 1.1875 3 3 C2.6875 5.6875 2.6875 5.6875 2 8 C0.35 8 -1.3 8 -3 8 C-2.45276317 4.62537285 -1.9451 2.91765 0 0 Z " fill="#333333" transform="translate(33,43)"/>
<path d="M0 0 C1.65 0 3.3 0 5 0 C4.34 1.65 3.68 3.3 3 5 C1.35 5 -0.3 5 -2 5 C-1.34 3.35 -0.68 1.7 0 0 Z " fill="#191919" transform="translate(37,11)"/>
<path d="M0 0 C0.66 0 1.32 0 2 0 C2.33 1.98 2.66 3.96 3 6 C2.01 6.66 1.02 7.32 0 8 C-1.125 6.25 -1.125 6.25 -2 4 C-1.125 1.75 -1.125 1.75 0 0 Z " fill="#252525" transform="translate(33,6)"/>
<path d="M0 0 C1.65 0 3.3 0 5 0 C5.66 1.32 6.32 2.64 7 4 C5.02 4 3.04 4 1 4 C0.67 2.68 0.34 1.36 0 0 Z " fill="#0F0F0F" transform="translate(4,24)"/>
<path d="M0 0 C1.65 0 3.3 0 5 0 C5.33 1.32 5.66 2.64 6 4 C4.35 3.67 2.7 3.34 1 3 C0.67 2.01 0.34 1.02 0 0 Z " fill="#0A0A0A" transform="translate(35,42)"/>
</svg>
