<?xml version="1.0" encoding="UTF-8"?>
<svg version="1.1" xmlns="http://www.w3.org/2000/svg" width="150" height="150">
<path d="M0 0 C4.78173828 0.74755859 4.78173828 0.74755859 6.74609375 3.01953125 C7.30425781 3.94121094 7.86242187 4.86289062 8.4375 5.8125 C9.11941406 6.89402344 9.80132812 7.97554687 10.50390625 9.08984375 C10.89078613 9.70456543 11.27766602 10.31928711 11.67626953 10.95263672 C14.29573805 15.00406848 17.09793616 18.93074282 19.875 22.875 C20.47658936 23.73109863 21.07817871 24.58719727 21.69799805 25.46923828 C22.89445291 27.17071233 24.09178508 28.87156984 25.29003906 30.57177734 C26.88227476 32.83282479 28.46885956 35.0977379 30.0546875 37.36328125 C30.95272075 38.63830565 31.85113101 39.91306464 32.75 41.1875 C33.15589355 41.76935059 33.56178711 42.35120117 33.97998047 42.95068359 C36.04726801 45.95911475 36.04726801 45.95911475 39 48 C43.88961806 48.37403391 43.88961806 48.37403391 48.375 46.6875 C51.71213189 43.22201688 51.14933468 38.98575476 51.17578125 34.48046875 C51.19898376 32.96808511 51.22310127 31.45571527 51.24804688 29.94335938 C51.28310684 27.56688235 51.31248069 25.19091278 51.32592773 22.81420898 C51.34147208 20.5148416 51.38171989 18.21694407 51.42578125 15.91796875 C51.42387283 15.21463913 51.42196442 14.51130951 51.41999817 13.78666687 C51.54364385 8.75887479 52.86790702 5.8904548 56 2 C58.9590595 -0.07611432 61.42884719 -0.27177532 65 -0.25 C65.845625 -0.25515625 66.69125 -0.2603125 67.5625 -0.265625 C71.07161604 0.11677867 73.22244792 1.0997604 75.54882812 3.79321289 C76.03802734 4.5124292 76.52722656 5.23164551 77.03125 5.97265625 C77.58876953 6.78186523 78.14628906 7.59107422 78.72070312 8.42480469 C79.30787109 9.29524414 79.89503906 10.16568359 80.5 11.0625 C81.74963389 12.88176195 82.99964053 14.70076791 84.25 16.51953125 C84.87648438 17.43686035 85.50296875 18.35418945 86.1484375 19.29931641 C88.89679559 23.3080634 91.69494655 27.28081345 94.5 31.25 C94.96728516 31.91523682 95.43457031 32.58047363 95.91601562 33.26586914 C98.31818572 36.67452789 100.75077583 40.06053003 103.21875 43.421875 C103.70279297 44.0828418 104.18683594 44.74380859 104.68554688 45.42480469 C105.93294133 47.13322256 105.93294133 47.13322256 108 48 C111.67329964 48.13357453 114.49852959 48.1671568 118 47 C120.2001186 38.2752654 120.11675943 30.04365672 119.83398438 21.1015625 C119.71288791 14.25334873 119.70914593 7.83205704 124.41772461 2.34912109 C128.33294593 -0.98917747 131.65240293 0 137 0 C137 9.57 137 19.14 137 29 C134.03 30.32 131.06 31.64 128 33 C125.20275338 35.79724662 125.70302164 38.42532555 125.69140625 42.16796875 C125.66622665 43.63346718 125.64082894 45.09896188 125.61523438 46.56445312 C125.58660743 48.87051247 125.56259005 51.17650623 125.54370117 53.48266602 C125.5218808 55.7114611 125.4824107 57.93945559 125.44140625 60.16796875 C125.44129044 60.84740036 125.44117462 61.52683197 125.4410553 62.22685242 C125.3179673 68.25909349 123.9595977 72.9874402 119.6875 77.375 C116.0836075 79.55409779 113.32469617 80.5306797 109.11450195 79.56958008 C103.86055171 77.7973253 101.05612637 75.39366787 98 70.75 C97.3344812 69.79480469 97.3344812 69.79480469 96.65551758 68.8203125 C95.65562895 67.38039198 94.66504657 65.93398008 93.68212891 64.48242188 C91.08965566 60.65654845 88.45098642 56.86297763 85.81445312 53.06738281 C84.42290006 51.06055628 83.03723229 49.0496328 81.65820312 47.03417969 C75.55755672 37.11637299 75.55755672 37.11637299 66.4375 30.875 C62.63852004 31.01314473 60.95224581 31.6555695 58 34 C56.4922304 37.0155392 56.82273144 40.14746704 56.7890625 43.45703125 C56.76098721 44.97722419 56.7323227 46.49740633 56.703125 48.01757812 C56.66191631 50.41381451 56.62502918 52.80985094 56.59863281 55.20629883 C56.5709445 57.51946645 56.52506846 59.8317188 56.4765625 62.14453125 C56.47330963 62.85615921 56.47005676 63.56778717 56.46670532 64.30097961 C56.32462337 70.08043287 54.7829006 73.2170994 50.75 77.25 C47.33469773 79.42337417 45.04346599 79.929062 41 80 C32.7988768 77.32208222 28.13410247 68.98263569 23.4375 62.1875 C22.39547662 60.69465218 21.35247207 59.20248884 20.30859375 57.7109375 C19.77089355 56.94233398 19.23319336 56.17373047 18.67919922 55.38183594 C15.29004337 50.57453666 11.82531638 45.82139014 8.36499023 41.06518555 C7.85266846 40.35918213 7.34034668 39.65317871 6.8125 38.92578125 C6.14154297 38.00406128 6.14154297 38.00406128 5.45703125 37.0637207 C4.97621094 36.38269287 4.49539062 35.70166504 4 35 C3.29004883 34.07195557 2.58009766 33.14391113 1.84863281 32.18774414 C-0.30919941 28.46682294 -0.46615529 26.33777411 -0.390625 22.0703125 C-0.37773438 20.78125 -0.36484375 19.4921875 -0.3515625 18.1640625 C-0.31814906 16.81769732 -0.28428937 15.47134315 -0.25 14.125 C-0.22991356 12.75523431 -0.21166655 11.38544034 -0.1953125 10.015625 C-0.1482806 6.67636014 -0.08255864 3.33854438 0 0 Z " fill="#FCFCFC" transform="translate(7,39)"/>
<path d="M0 0 C3.42504293 1.34596383 4.97724265 2.95287305 7.03125 5.97265625 C7.58876953 6.78186523 8.14628906 7.59107422 8.72070312 8.42480469 C9.30787109 9.29524414 9.89503906 10.16568359 10.5 11.0625 C11.74963389 12.88176195 12.99964053 14.70076791 14.25 16.51953125 C14.87648438 17.43686035 15.50296875 18.35418945 16.1484375 19.29931641 C18.89679559 23.3080634 21.69494655 27.28081345 24.5 31.25 C24.96728516 31.91523682 25.43457031 32.58047363 25.91601562 33.26586914 C28.31818572 36.67452789 30.75077583 40.06053003 33.21875 43.421875 C33.70279297 44.0828418 34.18683594 44.74380859 34.68554688 45.42480469 C35.93294133 47.13322256 35.93294133 47.13322256 38 48 C41.67329964 48.13357453 44.49852959 48.1671568 48 47 C50.2001186 38.2752654 50.11675943 30.04365672 49.83398438 21.1015625 C49.71288791 14.25334873 49.70914593 7.83205704 54.41772461 2.34912109 C58.33294593 -0.98917747 61.65240293 0 67 0 C67 9.57 67 19.14 67 29 C64.03 30.32 61.06 31.64 58 33 C55.20275338 35.79724662 55.70302164 38.42532555 55.69140625 42.16796875 C55.66622665 43.63346718 55.64082894 45.09896188 55.61523438 46.56445312 C55.58660743 48.87051247 55.56259005 51.17650623 55.54370117 53.48266602 C55.5218808 55.7114611 55.4824107 57.93945559 55.44140625 60.16796875 C55.44129044 60.84740036 55.44117462 61.52683197 55.4410553 62.22685242 C55.3179673 68.25909349 53.9595977 72.9874402 49.6875 77.375 C46.0836075 79.55409779 43.32469617 80.5306797 39.11450195 79.56958008 C33.86108621 77.7975056 31.05502976 75.39424352 28 70.75 C27.55994629 70.11610352 27.11989258 69.48220703 26.66650391 68.82910156 C25.67094661 67.39163701 24.68400991 65.94817758 23.70410156 64.5 C21.75770733 61.64454485 19.76793794 58.82205333 17.7734375 56 C11.86135297 47.60620269 11.86135297 47.60620269 9.2109375 43.796875 C8.61587402 42.94448242 8.02081055 42.09208984 7.40771484 41.21386719 C6 39 6 39 5 36 C5.66 36 6.32 36 7 36 C8.48444714 37.92887428 9.84510178 39.85032121 11.1875 41.875 C12.00498435 43.08218296 12.82269464 44.28921295 13.640625 45.49609375 C14.04345703 46.09534668 14.44628906 46.69459961 14.86132812 47.31201172 C16.90507827 50.3417048 19.00871597 53.32880658 21.11328125 56.31640625 C22.57896749 58.40114009 24.03199169 60.49320479 25.48046875 62.58984375 C26.36166509 63.85178188 27.24317429 65.11350159 28.125 66.375 C28.53290771 66.97046631 28.94081543 67.56593262 29.36108398 68.17944336 C31.87508555 71.75325419 34.35576134 74.56854513 38 77 C41.84933957 77.47272591 44.0233019 77.6335339 47.3125 75.5 C47.869375 75.005 48.42625 74.51 49 74 C49.66 74 50.32 74 51 74 C52.03974499 70.58934861 52.11508506 67.47735158 52.09765625 63.921875 C52.09443359 62.76171875 52.09121094 61.6015625 52.08789062 60.40625 C52.07951172 59.1996875 52.07113281 57.993125 52.0625 56.75 C52.05798828 55.52796875 52.05347656 54.3059375 52.04882812 53.046875 C52.03704815 50.03120054 52.02059853 47.01562502 52 44 C51.21625 44.969375 50.4325 45.93875 49.625 46.9375 C48.08711295 48.83962346 47.20740087 49.89629957 45 51 C37.89320388 51.69902913 37.89320388 51.69902913 34.125 48.75 C32.3998944 46.5175104 31.05872497 44.59868856 30 42 C29.34 42 28.68 42 28 42 C26.94346516 40.36858591 25.95852672 38.69085905 25 37 C23.44817229 34.58327749 21.84716163 32.19945017 20.25 29.8125 C19.8075293 29.15048584 19.36505859 28.48847168 18.90917969 27.80639648 C15.34400518 22.48642705 11.72593783 17.20898925 8 12 C7.19755859 10.85337891 7.19755859 10.85337891 6.37890625 9.68359375 C5.86199219 8.96300781 5.34507813 8.24242187 4.8125 7.5 C4.36519531 6.8709375 3.91789062 6.241875 3.45703125 5.59375 C0.9333083 2.83321658 -1.31251847 2.05729013 -5 1.75 C-7.95558829 1.99629902 -9.42760712 2.66945196 -12 4 C-12.99 3.67 -13.98 3.34 -15 3 C-10.41072753 -0.67141797 -5.63222282 -0.70517261 0 0 Z " fill="#FAF9F9" transform="translate(77,39)"/>
<path d="M0 0 C3.42504293 1.34596383 4.97724265 2.95287305 7.03125 5.97265625 C7.58876953 6.78186523 8.14628906 7.59107422 8.72070312 8.42480469 C9.30787109 9.29524414 9.89503906 10.16568359 10.5 11.0625 C11.74963389 12.88176195 12.99964053 14.70076791 14.25 16.51953125 C14.87648438 17.43686035 15.50296875 18.35418945 16.1484375 19.29931641 C18.89679559 23.3080634 21.69494655 27.28081345 24.5 31.25 C24.96728516 31.91523682 25.43457031 32.58047363 25.91601562 33.26586914 C28.31818572 36.67452789 30.75077583 40.06053003 33.21875 43.421875 C33.70279297 44.0828418 34.18683594 44.74380859 34.68554688 45.42480469 C35.93294133 47.13322256 35.93294133 47.13322256 38 48 C41.67329964 48.13357453 44.49852959 48.1671568 48 47 C48.80563638 44.89415562 48.80563638 44.89415562 49.1875 42.4375 C49.34605469 41.61121094 49.50460938 40.78492188 49.66796875 39.93359375 C49.77753906 39.29550781 49.88710937 38.65742187 50 38 C50.66 38 51.32 38 52 38 C52.34751969 40.91916538 52.53280018 43.13195476 50.95703125 45.69921875 C47.73861115 49.59718797 46.22080414 50.8799209 41.1875 51.375 C37.66346017 51.3366257 37.08266111 51.06469131 34.125 48.75 C32.3998944 46.5175104 31.05872497 44.59868856 30 42 C29.34 42 28.68 42 28 42 C26.94346516 40.36858591 25.95852672 38.69085905 25 37 C23.44817229 34.58327749 21.84716163 32.19945017 20.25 29.8125 C19.8075293 29.15048584 19.36505859 28.48847168 18.90917969 27.80639648 C15.34400518 22.48642705 11.72593783 17.20898925 8 12 C7.19755859 10.85337891 7.19755859 10.85337891 6.37890625 9.68359375 C5.86199219 8.96300781 5.34507813 8.24242187 4.8125 7.5 C4.36519531 6.8709375 3.91789062 6.241875 3.45703125 5.59375 C0.9333083 2.83321658 -1.31251847 2.05729013 -5 1.75 C-7.95558829 1.99629902 -9.42760712 2.66945196 -12 4 C-12.99 3.67 -13.98 3.34 -15 3 C-10.41072753 -0.67141797 -5.63222282 -0.70517261 0 0 Z " fill="#E0E0E0" transform="translate(77,39)"/>
<path d="M0 0 C4.20823609 1.40274536 5.59905691 4.44405139 7.9375 8 C8.91686593 9.45777276 9.89737524 10.91477788 10.87890625 12.37109375 C11.38824707 13.13019043 11.89758789 13.88928711 12.42236328 14.67138672 C15.02022353 18.50586382 17.69662254 22.28402227 20.375 26.0625 C20.86218506 26.75150391 21.34937012 27.44050781 21.85131836 28.15039062 C22.78154043 29.46499803 23.71351841 30.77836515 24.64746094 32.09033203 C25.57010215 33.39302149 26.48449495 34.70158268 27.39160156 36.01513672 C29.68526138 39.55234708 29.68526138 39.55234708 33 42 C37.84648706 42.37351174 37.84648706 42.37351174 42.3125 40.75 C44.06260495 38.93507635 45.0397624 37.32057419 46 35 C46.33 35.99 46.66 36.98 47 38 C44.97488817 41.37518639 43.59627108 43.37459529 39.90625 44.8203125 C36.58770036 45.44538178 34.13110685 45.57358359 31.07421875 44.0234375 C27.09683589 40.8662245 24.40430774 36.92688122 21.71484375 32.66796875 C19.66209369 29.47428244 17.46625326 26.39339399 15.25 23.3125 C14.82952393 22.72500977 14.40904785 22.13751953 13.97583008 21.53222656 C11.70733953 18.365142 9.42553905 15.20817431 7.1328125 12.05859375 C6.67100586 11.42074951 6.20919922 10.78290527 5.73339844 10.12573242 C4.84220317 8.89513334 3.94714194 7.6673228 3.04785156 6.44262695 C0 2.22512244 0 2.22512244 0 0 Z " fill="#E8E8E8" transform="translate(13,45)"/>
<path d="M0 0 C1.8871875 0.0309375 1.8871875 0.0309375 3.8125 0.0625 C3.87034708 4.18744151 3.90604407 8.31227944 3.9375 12.4375 C3.96263672 14.2009375 3.96263672 14.2009375 3.98828125 16 C3.99472656 17.12148438 4.00117188 18.24296875 4.0078125 19.3984375 C4.01828613 20.43532715 4.02875977 21.4722168 4.03955078 22.54052734 C3.8125 25.0625 3.8125 25.0625 1.8125 27.0625 C1.8125 18.4825 1.8125 9.9025 1.8125 1.0625 C-5.94771753 3.67346783 -5.94771753 3.67346783 -10.1875 9.0625 C-10.65887287 12.14484253 -10.78984322 15.1981949 -10.875 18.3125 C-10.90916016 19.15296875 -10.94332031 19.9934375 -10.97851562 20.859375 C-11.06073568 22.92662204 -11.12580157 24.99453874 -11.1875 27.0625 C-11.8475 27.0625 -12.5075 27.0625 -13.1875 27.0625 C-13.84722825 8.29689633 -13.84722825 8.29689633 -8.76953125 2.421875 C-6.03731841 0.07419582 -3.4432757 -0.05644714 0 0 Z " fill="#D1D0D0" transform="translate(140.1875,38.9375)"/>
<path d="M0 0 C0.66 0 1.32 0 2 0 C3.48444714 1.92887428 4.84510178 3.85032121 6.1875 5.875 C7.00498435 7.08218296 7.82269464 8.28921295 8.640625 9.49609375 C9.04345703 10.09534668 9.44628906 10.69459961 9.86132812 11.31201172 C11.36263918 13.53758304 12.89627528 15.73941999 14.4375 17.9375 C14.98535156 18.71996094 15.53320312 19.50242187 16.09765625 20.30859375 C17.59807219 22.43135881 19.10629219 24.54767788 20.62109375 26.66015625 C21.07621338 27.2951001 21.53133301 27.93004395 22.00024414 28.58422852 C22.90298404 29.84222887 23.80707615 31.0992602 24.71264648 32.35522461 C27.89066274 36.78132548 27.89066274 36.78132548 29 39 C25.7981499 37.63482688 24.15437456 36.26189802 22.15234375 33.4296875 C21.63446289 32.70531494 21.11658203 31.98094238 20.58300781 31.23461914 C19.76848145 30.06660767 19.76848145 30.06660767 18.9375 28.875 C18.37256836 28.07763428 17.80763672 27.28026855 17.22558594 26.45874023 C15.47402054 23.9791529 13.73602887 21.49048279 12 19 C11.45166504 18.21931152 10.90333008 17.43862305 10.33837891 16.63427734 C8.80304761 14.44770696 7.27454568 12.25660105 5.75 10.0625 C5.28456787 9.39524902 4.81913574 8.72799805 4.33959961 8.04052734 C2.50851704 5.37707164 1.02779525 3.08338576 0 0 Z " fill="#ECECEC" transform="translate(82,75)"/>
<path d="M0 0 C0.66 0 1.32 0 2 0 C3.23030726 1.5988191 4.38640163 3.25530585 5.5 4.9375 C7.70978178 8.56770686 7.70978178 8.56770686 11 11 C15.84648706 11.37351174 15.84648706 11.37351174 20.3125 9.75 C22.06260495 7.93507635 23.0397624 6.32057419 24 4 C24.33 4.99 24.66 5.98 25 7 C22.97488817 10.37518639 21.59627108 12.37459529 17.90625 13.8203125 C14.50731414 14.46052302 12.09476183 14.59344232 9.00390625 12.91796875 C5.20789107 9.82401229 2.40967937 6.24103569 0 2 C0 1.34 0 0.68 0 0 Z " fill="#D8D8D8" transform="translate(35,76)"/>
<path d="M0 0 C0.33 0 0.66 0 1 0 C1.8605539 15.03100813 1.8605539 15.03100813 -1.1875 18.8125 C-6.85844647 23.22323615 -6.85844647 23.22323615 -11.2109375 22.76953125 C-15.44819453 21.9673321 -18.10819656 21.34307213 -21 18 C-18.83125748 18.50603992 -17.00032373 18.99983813 -15 20 C-10.07525061 20.42310991 -10.07525061 20.42310991 -5.6875 18.5 C-5.130625 18.005 -4.57375 17.51 -4 17 C-3.34 17 -2.68 17 -2 17 C-0.95117609 13.43928688 -0.69613047 9.94472103 -0.4375 6.25 C-0.35371094 5.07953125 -0.26992187 3.9090625 -0.18359375 2.703125 C-0.09271484 1.36507812 -0.09271484 1.36507812 0 0 Z " fill="#E0E0DE" transform="translate(130,96)"/>
<path d="M0 0 C3.45771598 1.15257199 3.97408469 1.96607992 6.03125 4.859375 C6.59457031 5.64570312 7.15789063 6.43203125 7.73828125 7.2421875 C8.61033203 8.48355469 8.61033203 8.48355469 9.5 9.75 C10.37205078 10.96816406 10.37205078 10.96816406 11.26171875 12.2109375 C13.9986848 16.05646875 16.66287574 19.8933388 19 24 C18.34 24.33 17.68 24.66 17 25 C15.10043153 22.33597658 13.20605888 19.66829751 11.3125 17 C10.78205078 16.25621094 10.25160156 15.51242188 9.70507812 14.74609375 C6.29321076 9.93180237 3.06605738 5.0416939 0 0 Z " fill="#F0F0F0" transform="translate(14,77)"/>
<path d="M0 0 C1.8871875 0.0309375 1.8871875 0.0309375 3.8125 0.0625 C3.8125 2.3725 3.8125 4.6825 3.8125 7.0625 C3.4825 7.0625 3.1525 7.0625 2.8125 7.0625 C2.8125 5.0825 2.8125 3.1025 2.8125 1.0625 C-4.19220558 3.06569481 -4.19220558 3.06569481 -10.1875 7.0625 C-10.1875 4.0625 -10.1875 4.0625 -8.875 2.4375 C-6.05339115 0.13841131 -3.4967371 -0.05732356 0 0 Z " fill="#D4D4D4" transform="translate(140.1875,38.9375)"/>
<path d="M0 0 C0.33 0.99 0.66 1.98 1 3 C-1.3125 5.0625 -1.3125 5.0625 -4 7 C-4.99 6.67 -5.98 6.34 -7 6 C-2.25 2 -2.25 2 0 2 C0 1.34 0 0.68 0 0 Z " fill="#E4E4E2" transform="translate(128,111)"/>
<path d="M0 0 C0.66 0 1.32 0 2 0 C3.2890625 1.75 3.2890625 1.75 4.625 4 C5.07101563 4.7425 5.51703125 5.485 5.9765625 6.25 C6.31429687 6.8275 6.65203125 7.405 7 8 C6.01 8 5.02 8 4 8 C0 2.74285714 0 2.74285714 0 0 Z " fill="#DCDCDC" transform="translate(35,76)"/>
<path d="M0 0 C2.91517292 1.07401108 4.77810176 1.77810176 7 4 C6.67 4.99 6.34 5.98 6 7 C3.95880212 5.38405168 1.95927063 3.7143618 0 2 C0 1.34 0 0.68 0 0 Z " fill="#F1F1F1" transform="translate(75,68)"/>
</svg>
